<?xml version="1.0" encoding="UTF-8" standalone="no"?>
<svg xmlns:dc="http://purl.org/dc/elements/1.1/" xmlns:cc="http://creativecommons.org/ns#" xmlns:rdf="http://www.w3.org/1999/02/22-rdf-syntax-ns#" xmlns:svg="http://www.w3.org/2000/svg" xmlns="http://www.w3.org/2000/svg" viewBox="0 0 555.55603 194.444" height="194.444" width="555.55603" xml:space="preserve" id="svg2" version="1.1"><metadata id="metadata8"><rdf:rdf><cc:work rdf:about=""><dc:format>image/svg+xml</dc:format>
                <dc:type rdf:resource="http://purl.org/dc/dcmitype/StillImage"></dc:type>
            </cc:work></rdf:rdf></metadata>
    <defs id="defs6"><clipPath id="clipPath18" clipPathUnits="userSpaceOnUse"><path id="path16" d="M 0,145.833 H 416.667 V 0 H 0 Z"></path></clipPath></defs>
    <g transform="matrix(1.3333333,0,0,-1.3333333,0,194.444)" id="g10"><g id="g12"><g clip-path="url(#clipPath18)" id="g14"><g transform="translate(158.1366,73.7621)" id="g20"><path id="path22" style="fill:#ffffff;fill-opacity:1;fill-rule:nonzero;stroke:none" d="m 0,0 c 1.327,-0.749 3.227,-1.415 5.704,-1.988 2.477,-0.577 5.013,-0.866 7.608,-0.866 2.536,0 4.871,0.318 7.001,0.949 2.129,0.632 3.965,1.562 5.493,2.771 1.523,1.209 2.722,2.658 3.589,4.363 0.861,1.698 1.297,3.617 1.297,5.747 0,2.595 -0.769,4.901 -2.296,6.918 -1.528,2.017 -4.079,3.598 -7.652,4.754 l -7.001,2.247 c -2.649,0.867 -4.466,1.772 -5.445,2.722 -0.979,0.95 -1.468,2.12 -1.468,3.501 0,2.022 0.778,3.49 2.335,4.411 1.552,0.92 3.745,1.385 6.57,1.385 3.511,0 6.688,-0.636 9.508,-1.904 0.861,-0.402 1.498,-0.607 1.9,-0.607 0.749,0 1.121,0.523 1.121,1.561 v 2.331 c 0,0.69 -0.142,1.239 -0.427,1.64 -0.293,0.406 -0.783,0.808 -1.468,1.214 -0.524,0.284 -1.209,0.573 -2.076,0.862 -0.867,0.289 -1.801,0.548 -2.81,0.778 -1.009,0.235 -2.071,0.421 -3.197,0.563 -1.126,0.147 -2.238,0.216 -3.329,0.216 -2.193,0 -4.269,-0.289 -6.228,-0.862 C 6.771,42.128 5.057,41.276 3.588,40.155 2.115,39.029 0.935,37.673 0.044,36.092 c -0.896,-1.587 -1.341,-3.413 -1.341,-5.488 0,-2.595 0.822,-4.984 2.467,-7.178 1.64,-2.193 4.274,-3.863 7.907,-5.013 l 7.172,-2.247 c 2.424,-0.808 4.084,-1.675 4.975,-2.595 C 22.115,12.646 22.56,11.5 22.56,10.109 22.56,8.097 21.713,6.536 20.009,5.444 18.311,4.352 15.907,3.804 12.792,3.804 10.834,3.804 8.876,4 6.913,4.406 4.955,4.812 3.143,5.39 1.469,6.139 0.95,6.364 0.529,6.536 0.215,6.653 -0.103,6.771 -0.406,6.824 -0.695,6.824 -1.444,6.824 -1.816,6.31 -1.816,5.272 V 2.766 c 0,-0.465 0.103,-0.925 0.303,-1.386 C -1.312,0.92 -0.803,0.46 0,0"></path></g>
                <g transform="translate(80.2484,89.0628)" id="g24"><path id="path26" style="fill:#ffffff;fill-opacity:1;fill-rule:nonzero;stroke:none" d="m 0,0 c 0,-1.669 -0.157,-3.099 -0.475,-4.279 -0.323,-1.185 -0.881,-2.238 -1.684,-3.158 -1.327,-1.498 -2.884,-2.551 -4.671,-3.153 -1.787,-0.607 -3.486,-0.91 -5.101,-0.91 -2.248,0 -3.976,0.592 -5.185,1.771 -1.209,1.186 -1.816,2.929 -1.816,5.234 0,2.473 0.807,4.377 2.423,5.704 1.611,1.327 4.059,1.988 7.344,1.988 1.498,0 3.04,-0.098 4.626,-0.304 C -2.957,2.692 -1.444,2.418 0,2.076 Z M -5.665,8.69 C -7.481,8.949 -9.224,9.077 -10.894,9.077 -15.96,9.077 -20,7.794 -22.996,5.229 -25.992,2.668 -27.49,-0.72 -27.49,-4.93 c 0,-3.971 1.209,-7.148 3.633,-9.508 2.418,-2.36 5.703,-3.544 9.855,-3.544 5.816,0 10.663,2.276 14.521,6.834 0.519,-1.102 1.023,-2.066 1.513,-2.898 0.489,-0.838 1.082,-1.601 1.772,-2.292 0.46,-0.46 0.949,-0.695 1.468,-0.695 0.407,0 0.838,0.147 1.298,0.431 l 3.114,2.076 c 0.631,0.465 0.95,0.95 0.95,1.473 0,0.343 -0.118,0.72 -0.343,1.122 -0.695,1.268 -1.229,2.452 -1.601,3.544 -0.377,1.092 -0.563,2.566 -0.563,4.407 v 16.083 c 0,5.419 -1.371,9.468 -4.108,12.146 -2.741,2.678 -7.045,4.015 -12.92,4.015 -2.712,0 -5.278,-0.314 -7.701,-0.946 -2.419,-0.636 -4.494,-1.385 -6.218,-2.252 -0.695,-0.342 -1.155,-0.685 -1.385,-1.037 -0.231,-0.343 -0.348,-0.921 -0.348,-1.724 v -2.418 c 0,-1.038 0.348,-1.562 1.038,-1.562 0.171,0 0.431,0.044 0.779,0.132 0.347,0.084 0.92,0.304 1.728,0.647 1.728,0.694 3.5,1.258 5.317,1.688 1.816,0.426 3.588,0.647 5.316,0.647 3.805,0 6.482,-0.764 8.04,-2.292 C -0.779,17.62 0,14.986 0,11.241 V 7.608 c -1.958,0.46 -3.848,0.817 -5.665,1.082"></path></g>
                <g transform="translate(105.058,74.6263)" id="g28"><path id="path30" style="fill:#ffffff;fill-opacity:1;fill-rule:nonzero;stroke:none" d="m 0,0 c 0.289,-0.984 0.631,-1.63 1.038,-1.943 0.406,-0.319 1.038,-0.476 1.904,-0.476 h 4.235 c 0.921,0 1.581,0.172 1.988,0.515 0.401,0.347 0.719,1.013 0.95,1.992 l 7.608,31.813 7.691,-31.813 c 0.23,-0.979 0.548,-1.645 0.955,-1.992 0.401,-0.343 1.062,-0.515 1.987,-0.515 h 4.23 c 0.867,0 1.503,0.157 1.905,0.476 0.406,0.313 0.749,0.959 1.038,1.943 l 11.926,38.212 c 0.181,0.514 0.289,0.92 0.353,1.209 0.053,0.289 0.083,0.544 0.083,0.779 0,0.803 -0.402,1.209 -1.209,1.209 h -4.583 c -0.925,0 -1.572,-0.161 -1.944,-0.475 C 39.778,40.616 39.45,39.965 39.162,38.99 L 30.604,5.88 22.819,38.99 c -0.225,0.975 -0.548,1.626 -0.949,1.944 -0.402,0.314 -1.063,0.475 -1.983,0.475 h -3.981 c -0.92,0 -1.586,-0.161 -1.988,-0.475 -0.406,-0.318 -0.719,-0.969 -0.949,-1.944 L 5.272,6.311 -3.026,38.99 c -0.288,0.975 -0.617,1.626 -0.994,1.944 -0.376,0.314 -1.023,0.475 -1.948,0.475 h -4.837 c -0.808,0 -1.21,-0.406 -1.21,-1.209 0,-0.348 0.142,-1.013 0.431,-1.988 z"></path></g>
                <g transform="translate(178.429,50.6868)" id="g32"><path id="path34" style="fill:#f68d11;fill-opacity:1;fill-rule:nonzero;stroke:none" d="m 0,0 c -18.232,-7.735 -38.051,-11.477 -56.077,-11.477 -26.722,0 -52.596,7.334 -73.511,19.511 -1.836,1.058 -3.192,-0.818 -1.67,-2.193 19.388,-17.508 45.018,-28.025 73.472,-28.025 20.303,0 43.887,6.38 60.15,18.379 C 5.052,-1.812 2.751,1.165 0,0"></path></g>
                <g transform="translate(168.1634,57.4495)" id="g36"><path id="path38" style="fill:#f68d11;fill-opacity:1;fill-rule:nonzero;stroke:none" d="m 0,0 c -1.435,-1.004 -1.185,-2.394 0.406,-2.203 5.239,0.632 16.91,2.032 18.991,-0.631 2.081,-2.669 -2.315,-13.645 -4.279,-18.546 -0.592,-1.483 0.686,-2.086 2.027,-0.96 8.725,7.3 10.981,22.59 9.194,24.803 C 24.567,4.656 9.312,6.536 0,0"></path></g>
                <g transform="translate(241.6048,92.1449)" id="g40"><path id="path42" style="fill:#ffffff;fill-opacity:1;fill-rule:nonzero;stroke:none" d="m 0,0 c 2.145,0 3.765,0.705 4.847,2.105 1.091,1.4 1.634,3.491 1.634,6.267 0,5.552 -2.109,8.328 -6.325,8.328 -2.174,0 -4.347,-0.843 -6.521,-2.517 V 2.673 C -5.293,1.752 -4.245,1.082 -3.227,0.646 -2.203,0.215 -1.126,0 0,0 m -8.02,-9.704 c -0.391,0 -0.587,0.196 -0.587,0.588 v 26.677 c 0,0.392 0.196,0.592 0.587,0.592 h 0.749 c 0.421,0 0.642,-0.2 0.667,-0.592 l 0.161,-1.61 c 1.205,0.969 2.375,1.679 3.515,2.124 1.141,0.441 2.316,0.666 3.52,0.666 2.536,0 4.539,-0.91 6.012,-2.727 C 8.063,14.188 8.798,11.696 8.798,8.523 8.798,5.307 8.029,2.737 6.481,0.822 4.935,-1.087 2.859,-2.042 0.234,-2.042 c -2.413,0 -4.606,0.886 -6.599,2.668 v -9.742 c 0,-0.392 -0.196,-0.588 -0.592,-0.588 z"></path></g>
                <g transform="translate(260.4613,92.1449)" id="g44"><path id="path46" style="fill:#ffffff;fill-opacity:1;fill-rule:nonzero;stroke:none" d="m 0,0 c 0.994,0 2.071,0.201 3.227,0.612 1.145,0.401 2.315,0.974 3.495,1.703 v 4.916 c -1.757,0.47 -3.461,0.705 -5.106,0.705 -3.667,0 -5.503,-1.41 -5.503,-4.24 0,-1.209 0.327,-2.125 0.979,-2.756 C -2.252,0.318 -1.282,0 0,0 m -0.313,-2.042 c -1.807,0 -3.242,0.514 -4.303,1.547 -1.063,1.038 -1.592,2.419 -1.592,4.147 0,1.914 0.656,3.422 1.964,4.519 1.311,1.101 3.089,1.655 5.346,1.655 1.752,0 3.627,-0.304 5.62,-0.906 v 3.3 c 0,1.596 -0.382,2.741 -1.141,3.442 -0.759,0.69 -2.017,1.038 -3.769,1.038 -1.788,0 -3.697,-0.328 -5.738,-0.985 -0.24,-0.078 -0.436,-0.117 -0.593,-0.117 -0.259,0 -0.391,0.166 -0.391,0.509 v 0.632 c 0,0.21 0.039,0.372 0.117,0.489 0.078,0.123 0.216,0.221 0.397,0.299 2.066,0.808 4.254,1.214 6.56,1.214 2.306,0 4.01,-0.485 5.121,-1.454 1.121,-0.97 1.675,-2.433 1.675,-4.396 v -13.91 c 0,-0.396 -0.196,-0.592 -0.588,-0.592 H 7.545 c -0.392,0 -0.603,0.196 -0.632,0.592 L 6.762,0.67 C 4.504,-1.141 2.149,-2.042 -0.313,-2.042"></path></g>
                <g transform="translate(276.0599,90.535)" id="g48"><path id="path50" style="fill:#ffffff;fill-opacity:1;fill-rule:nonzero;stroke:none" d="m 0,0 c -0.392,0 -0.592,0.196 -0.592,0.592 v 18.58 c 0,0.391 0.2,0.592 0.592,0.592 h 0.749 c 0.421,0 0.642,-0.201 0.666,-0.592 l 0.201,-2.276 c 0.993,1.101 1.968,1.875 2.922,2.339 0.96,0.456 2.037,0.686 3.241,0.686 0.422,0 0.759,-0.015 1.024,-0.039 0.391,-0.025 0.588,-0.24 0.588,-0.632 v -0.979 c 0,-0.107 -0.039,-0.206 -0.119,-0.293 -0.078,-0.094 -0.185,-0.143 -0.312,-0.143 -0.211,0 -0.407,0.01 -0.588,0.02 -0.185,0.015 -0.46,0.024 -0.827,0.024 -1.205,0 -2.272,-0.225 -3.202,-0.671 C 3.412,16.763 2.517,16.043 1.65,15.049 V 0.592 C 1.65,0.196 1.454,0 1.062,0 Z"></path></g>
                <g transform="translate(295.8626,90.2992)" id="g52"><path id="path54" style="fill:#ffffff;fill-opacity:1;fill-rule:nonzero;stroke:none" d="m 0,0 c -1.547,0 -2.722,0.417 -3.535,1.239 -0.818,0.823 -1.219,2.017 -1.219,3.594 v 13.199 h -3.099 c -0.396,0 -0.592,0.196 -0.592,0.592 v 0.392 c 0,0.21 0.034,0.367 0.117,0.469 0.079,0.108 0.235,0.172 0.475,0.202 l 3.177,0.273 0.28,5.185 c 0.024,0.206 0.083,0.357 0.171,0.451 0.093,0.092 0.23,0.136 0.416,0.136 h 0.705 c 0.397,0 0.587,-0.195 0.587,-0.587 V 20 h 5.7 C 3.574,20 3.77,19.799 3.77,19.412 v -0.788 c 0,-0.396 -0.196,-0.592 -0.587,-0.592 h -5.7 V 4.945 c 0,-1.067 0.231,-1.826 0.686,-2.272 0.465,-0.45 1.224,-0.666 2.301,-0.666 0.759,0 1.429,0.064 2.008,0.196 0.284,0.049 0.513,0.098 0.685,0.132 0.171,0.044 0.294,0.064 0.372,0.064 0.288,0 0.436,-0.162 0.436,-0.475 V 1.337 C 3.971,0.891 3.823,0.612 3.535,0.514 2.517,0.167 1.342,0 0,0"></path></g>
                <g transform="translate(304.5853,90.535)" id="g56"><path id="path58" style="fill:#ffffff;fill-opacity:1;fill-rule:nonzero;stroke:none" d="m 0,0 c -0.393,0 -0.593,0.196 -0.593,0.592 v 18.58 c 0,0.391 0.2,0.592 0.593,0.592 h 0.788 c 0.416,0 0.641,-0.201 0.666,-0.592 L 1.61,17.483 c 1.283,0.915 2.634,1.625 4.049,2.124 1.415,0.495 2.79,0.75 4.122,0.75 1.914,0 3.373,-0.509 4.382,-1.518 1.009,-1.008 1.513,-2.497 1.513,-4.46 V 0.592 C 15.676,0.196 15.48,0 15.089,0 h -1.058 c -0.396,0 -0.597,0.196 -0.597,0.592 v 12.842 c 0,1.704 -0.319,2.942 -0.975,3.716 -0.66,0.768 -1.703,1.155 -3.147,1.155 -2.62,0 -5.17,-0.837 -7.663,-2.511 V 0.592 C 1.649,0.196 1.454,0 1.062,0 Z"></path></g>
                <g transform="translate(339.513,101.8504)" id="g60"><path id="path62" style="fill:#ffffff;fill-opacity:1;fill-rule:nonzero;stroke:none" d="m 0,0 c 0.024,0.367 0.044,0.798 0.044,1.297 0,1.886 -0.466,3.31 -1.381,4.285 -0.916,0.964 -2.267,1.448 -4.049,1.448 -4.136,0 -6.325,-2.34 -6.555,-7.03 z m -4.833,-11.902 c -3.118,0 -5.464,0.881 -7.03,2.649 -1.572,1.773 -2.36,4.397 -2.36,7.878 0,3.299 0.793,5.86 2.374,7.681 1.587,1.821 3.805,2.732 6.663,2.732 2.385,0 4.211,-0.685 5.484,-2.042 C 1.562,5.63 2.203,3.677 2.203,1.141 2.203,0.093 2.144,-0.695 2.041,-1.219 1.963,-1.61 1.737,-1.812 1.375,-1.812 h -13.316 c 0.024,-2.746 0.627,-4.778 1.801,-6.085 1.18,-1.312 3.001,-1.963 5.469,-1.963 1.885,0 3.677,0.323 5.375,0.979 0.343,0.132 0.578,0.196 0.71,0.196 0.108,0 0.196,-0.044 0.274,-0.132 0.079,-0.093 0.124,-0.206 0.124,-0.338 v -0.588 c 0,-0.421 -0.153,-0.695 -0.437,-0.827 -1.89,-0.886 -3.955,-1.332 -6.208,-1.332"></path></g>
                <g transform="translate(347.2513,90.535)" id="g64"><path id="path66" style="fill:#ffffff;fill-opacity:1;fill-rule:nonzero;stroke:none" d="m 0,0 c -0.392,0 -0.593,0.196 -0.593,0.592 v 18.58 c 0,0.391 0.201,0.592 0.593,0.592 h 0.749 c 0.421,0 0.641,-0.201 0.665,-0.592 l 0.201,-2.276 c 0.989,1.101 1.968,1.875 2.923,2.339 0.96,0.456 2.037,0.686 3.241,0.686 0.421,0 0.759,-0.015 1.024,-0.039 0.391,-0.025 0.587,-0.24 0.587,-0.632 v -0.979 c 0,-0.107 -0.039,-0.206 -0.118,-0.293 -0.078,-0.094 -0.186,-0.143 -0.313,-0.143 -0.211,0 -0.406,0.01 -0.588,0.02 -0.185,0.015 -0.46,0.024 -0.827,0.024 -1.204,0 -2.272,-0.225 -3.201,-0.671 C 3.412,16.763 2.511,16.043 1.649,15.049 V 0.592 C 1.649,0.196 1.454,0 1.062,0 Z"></path></g>
                <g transform="translate(233.5872,46.889)" id="g68"><path id="path70" style="fill:#ffffff;fill-opacity:1;fill-rule:nonzero;stroke:none" d="m 0,0 c -0.392,0 -0.593,0.195 -0.593,0.592 v 18.58 c 0,0.391 0.201,0.593 0.593,0.593 h 0.788 c 0.416,0 0.642,-0.202 0.666,-0.593 l 0.161,-1.689 c 1.279,0.915 2.629,1.625 4.044,2.124 1.415,0.496 2.791,0.749 4.123,0.749 1.914,0 3.373,-0.508 4.382,-1.517 1.008,-1.008 1.513,-2.497 1.513,-4.46 V 0.592 C 15.677,0.195 15.48,0 15.089,0 h -1.058 c -0.396,0 -0.596,0.195 -0.596,0.592 v 12.843 c 0,1.703 -0.319,2.941 -0.98,3.715 -0.651,0.769 -1.699,1.156 -3.143,1.156 -2.62,0 -5.17,-0.837 -7.663,-2.512 V 0.592 C 1.649,0.195 1.454,0 1.062,0 Z"></path></g>
                <g transform="translate(268.516,58.2044)" id="g72"><path id="path74" style="fill:#ffffff;fill-opacity:1;fill-rule:nonzero;stroke:none" d="m 0,0 c 0.024,0.367 0.044,0.799 0.044,1.298 0,1.885 -0.465,3.309 -1.38,4.284 C -2.252,6.546 -3.604,7.03 -5.385,7.03 -9.522,7.03 -11.711,4.69 -11.94,0 Z m -4.832,-11.901 c -3.119,0 -5.464,0.88 -7.03,2.648 -1.572,1.773 -2.361,4.397 -2.361,7.878 0,3.299 0.794,5.86 2.375,7.682 1.586,1.82 3.804,2.731 6.663,2.731 2.384,0 4.206,-0.685 5.484,-2.042 C 1.562,5.631 2.203,3.677 2.203,1.141 2.203,0.094 2.145,-0.695 2.042,-1.219 1.963,-1.61 1.738,-1.812 1.376,-1.812 H -11.94 c 0.024,-2.746 0.621,-4.778 1.801,-6.084 1.18,-1.313 3.001,-1.964 5.463,-1.964 1.891,0 3.682,0.323 5.381,0.979 0.343,0.132 0.578,0.196 0.71,0.196 0.107,0 0.195,-0.044 0.274,-0.132 0.079,-0.093 0.123,-0.205 0.123,-0.338 v -0.587 c 0,-0.421 -0.152,-0.696 -0.436,-0.828 -1.89,-0.886 -3.956,-1.331 -6.208,-1.331"></path></g>
                <g transform="translate(281.7552,46.6536)" id="g76"><path id="path78" style="fill:#ffffff;fill-opacity:1;fill-rule:nonzero;stroke:none" d="m 0,0 c -1.547,0 -2.722,0.416 -3.534,1.238 -0.819,0.823 -1.22,2.018 -1.22,3.594 v 13.199 h -3.103 c -0.392,0 -0.588,0.196 -0.588,0.593 v 0.392 c 0,0.21 0.034,0.367 0.117,0.469 0.079,0.108 0.235,0.171 0.471,0.201 l 3.181,0.274 0.28,5.185 c 0.024,0.206 0.083,0.357 0.171,0.451 0.093,0.092 0.23,0.136 0.416,0.136 h 0.705 c 0.397,0 0.587,-0.196 0.587,-0.587 v -5.146 h 5.7 c 0.391,0 0.587,-0.2 0.587,-0.587 v -0.788 c 0,-0.397 -0.196,-0.593 -0.587,-0.593 h -5.7 V 4.944 c 0,-1.067 0.231,-1.826 0.686,-2.271 0.465,-0.45 1.224,-0.666 2.306,-0.666 0.754,0 1.424,0.063 2.003,0.196 0.284,0.049 0.513,0.098 0.685,0.132 0.171,0.044 0.294,0.063 0.372,0.063 0.289,0 0.436,-0.161 0.436,-0.474 V 1.336 C 3.971,0.891 3.824,0.612 3.535,0.514 2.517,0.166 1.342,0 0,0"></path></g>
                <g transform="translate(294.5658,46.889)" id="g80"><path id="path82" style="fill:#ffffff;fill-opacity:1;fill-rule:nonzero;stroke:none" d="m 0,0 c -0.367,0 -0.617,0.181 -0.749,0.548 l -6.247,18.271 c -0.108,0.289 -0.156,0.486 -0.156,0.593 0,0.23 0.156,0.353 0.474,0.353 h 1.258 c 0.338,0 0.564,-0.172 0.666,-0.515 L 0.627,2.59 5.386,19.216 c 0.127,0.362 0.377,0.549 0.744,0.549 h 1.449 c 0.367,0 0.616,-0.187 0.744,-0.549 l 4.72,-16.738 5.503,16.772 c 0.102,0.343 0.322,0.515 0.665,0.515 h 1.181 c 0.312,0 0.469,-0.123 0.469,-0.353 0,-0.107 -0.053,-0.304 -0.157,-0.593 L 14.301,0.548 C 14.164,0.181 13.919,0 13.552,0 H 12.26 C 11.893,0 11.638,0.181 11.51,0.548 L 6.756,17.248 2.042,0.548 C 1.914,0.181 1.66,0 1.298,0 Z"></path></g>
                <g transform="translate(327.1761,48.3421)" id="g84"><path id="path86" style="fill:#ffffff;fill-opacity:1;fill-rule:nonzero;stroke:none" d="m 0,0 c 4.528,0 6.795,2.815 6.795,8.445 0,5.606 -2.267,8.411 -6.795,8.411 -4.534,0 -6.801,-2.805 -6.801,-8.411 C -6.801,2.815 -4.534,0 0,0 m 0,-2.042 c -2.879,0 -5.122,0.921 -6.723,2.767 -1.6,1.85 -2.393,4.421 -2.393,7.72 0,3.305 0.793,5.87 2.393,7.701 1.601,1.836 3.844,2.751 6.723,2.751 2.878,0 5.12,-0.915 6.717,-2.751 C 8.317,14.315 9.11,11.75 9.11,8.445 9.11,5.146 8.317,2.575 6.717,0.725 5.12,-1.121 2.878,-2.042 0,-2.042"></path></g>
                <g transform="translate(341.9847,46.889)" id="g88"><path id="path90" style="fill:#ffffff;fill-opacity:1;fill-rule:nonzero;stroke:none" d="m 0,0 c -0.392,0 -0.593,0.195 -0.593,0.592 v 18.58 c 0,0.391 0.201,0.593 0.593,0.593 h 0.749 c 0.416,0 0.642,-0.202 0.666,-0.593 L 1.61,16.896 c 0.994,1.101 1.974,1.875 2.928,2.339 0.96,0.456 2.037,0.686 3.241,0.686 0.421,0 0.759,-0.015 1.024,-0.039 0.391,-0.025 0.588,-0.24 0.588,-0.632 v -0.979 c 0,-0.108 -0.04,-0.206 -0.119,-0.293 -0.078,-0.093 -0.185,-0.143 -0.313,-0.143 -0.21,0 -0.406,0.011 -0.587,0.02 C 8.186,17.87 7.911,17.88 7.544,17.88 6.34,17.88 5.272,17.654 4.343,17.209 3.412,16.764 2.517,16.044 1.649,15.05 V 0.592 C 1.649,0.195 1.454,0 1.062,0 Z"></path></g>
                <g transform="translate(355.5003,46.889)" id="g92"><path id="path94" style="fill:#ffffff;fill-opacity:1;fill-rule:nonzero;stroke:none" d="m 0,0 c -0.392,0 -0.593,0.195 -0.593,0.592 v 27.892 c 0,0.397 0.201,0.592 0.593,0.592 h 1.062 c 0.392,0 0.587,-0.195 0.587,-0.592 V 10.957 l 9.43,8.411 c 0.26,0.259 0.592,0.397 0.984,0.397 h 1.415 c 0.308,0 0.475,-0.123 0.475,-0.353 0,-0.138 -0.147,-0.333 -0.436,-0.593 L 4.009,10.408 14.301,0.9 C 14.535,0.695 14.653,0.519 14.653,0.392 14.653,0.132 14.501,0 14.183,0 H 12.494 C 12.176,0 11.896,0.117 11.627,0.353 L 1.649,9.664 V 0.592 C 1.649,0.195 1.454,0 1.062,0 Z"></path></g>
            </g></g></g>
</svg>